<svg width="162" height="46" viewBox="0 0 162 46" fill="none" xmlns="http://www.w3.org/2000/svg">
<path d="M22.7063 24.063L12.0949 34.6648C12.4483 35.0185 17.345 39.7985 18.8097 40.6783C22.3442 42.8012 26.2335 42.4494 33.3081 34.6745L22.7063 24.063Z" stroke="#410DFF"/>
<path d="M22.7446 21.2795L33.3638 10.6855C29.7812 7.09962 28.1175 5.54792 26.6534 4.66709C23.1205 2.54155 19.231 2.89048 12.1506 10.6603L22.7446 21.2795Z" stroke="#410DFF"/>
<path d="M21.3375 22.7281L10.8158 12.0373C7.20571 15.5954 5.64275 17.2486 4.75201 18.7067C2.60256 22.2252 2.92509 26.1169 10.6467 33.2498L21.3375 22.7281Z" stroke="#410DFF"/>
<path d="M37.588 33.532C36.748 33.532 35.9827 33.4293 35.292 33.224C34.62 33.0187 34.0227 32.7573 33.5 32.44C32.996 32.1227 32.5667 31.796 32.212 31.46C31.8573 31.124 31.596 30.816 31.428 30.536C31.1853 30.2 31.0267 29.9013 30.952 29.64C30.8773 29.3787 30.896 29.1267 31.008 28.884C31.1387 28.6227 31.372 28.352 31.708 28.072C32.044 27.7733 32.352 27.624 32.632 27.624C32.9307 27.6053 33.2107 27.6893 33.472 27.876C33.752 28.0627 34.0227 28.324 34.284 28.66C34.732 29.2573 35.236 29.6867 35.796 29.948C36.356 30.1907 36.916 30.312 37.476 30.312C38.204 30.312 38.8387 30.2187 39.38 30.032C39.9213 29.8267 40.3413 29.528 40.64 29.136C40.9573 28.744 41.116 28.24 41.116 27.624C41.116 27.12 40.9573 26.7093 40.64 26.392C40.3413 26.056 39.94 25.776 39.436 25.552C38.932 25.3093 38.3627 25.0947 37.728 24.908C37.112 24.7027 36.4867 24.4787 35.852 24.236C35.404 24.0867 34.956 23.9093 34.508 23.704C34.06 23.48 33.64 23.228 33.248 22.948C32.8747 22.668 32.5387 22.3413 32.24 21.968C31.96 21.576 31.736 21.128 31.568 20.624C31.4 20.12 31.316 19.532 31.316 18.86C31.316 17.796 31.5773 16.8627 32.1 16.06C32.6227 15.2387 33.3507 14.5947 34.284 14.128C35.2173 13.6427 36.2813 13.4 37.476 13.4C38.2413 13.4 38.9227 13.4747 39.52 13.624C40.136 13.7547 40.6587 13.932 41.088 14.156C41.536 14.3613 41.9 14.576 42.18 14.8C42.4787 15.0053 42.6933 15.1827 42.824 15.332C43.2533 15.7613 43.4867 16.1253 43.524 16.424C43.58 16.704 43.412 17.0867 43.02 17.572C42.628 18.076 42.2453 18.356 41.872 18.412C41.5173 18.4493 41.116 18.3 40.668 17.964C40.3693 17.6467 40.0707 17.3947 39.772 17.208C39.4733 17.0027 39.1373 16.8533 38.764 16.76C38.4093 16.6667 37.9707 16.62 37.448 16.62C37.0747 16.62 36.7107 16.676 36.356 16.788C36.02 16.8813 35.7307 17.0307 35.488 17.236C35.2453 17.4227 35.0493 17.656 34.9 17.936C34.7693 18.216 34.704 18.5333 34.704 18.888C34.704 19.3733 34.8347 19.7747 35.096 20.092C35.376 20.3907 35.7493 20.6427 36.216 20.848C36.6827 21.0347 37.2053 21.212 37.784 21.38C38.3627 21.548 38.9507 21.7253 39.548 21.912C40.164 22.1173 40.7707 22.36 41.368 22.64C41.9653 22.92 42.4973 23.2747 42.964 23.704C43.4307 24.1147 43.804 24.6373 44.084 25.272C44.364 25.888 44.504 26.644 44.504 27.54C44.504 28.5667 44.308 29.4627 43.916 30.228C43.524 30.9933 42.992 31.6187 42.32 32.104C41.648 32.5893 40.9013 32.944 40.08 33.168C39.2587 33.4107 38.428 33.532 37.588 33.532ZM48.4745 33.252C47.9705 33.252 47.5972 33.1773 47.3545 33.028C47.1305 32.8787 46.9905 32.6733 46.9345 32.412C46.8785 32.1507 46.8505 31.8707 46.8505 31.572V21.1C46.8505 20.8013 46.8785 20.5307 46.9345 20.288C46.9905 20.0453 47.1399 19.8493 47.3825 19.7C47.6252 19.5507 48.0079 19.476 48.5305 19.476C49.0719 19.476 49.4639 19.588 49.7065 19.812C49.9679 20.036 50.0985 20.3907 50.0985 20.876L49.8465 21.66C49.9399 21.4547 50.0985 21.2307 50.3225 20.988C50.5465 20.7453 50.8172 20.5027 51.1345 20.26C51.4705 20.0173 51.8439 19.8213 52.2545 19.672C52.6652 19.5227 53.0945 19.448 53.5425 19.448C54.1585 19.448 54.7185 19.5507 55.2225 19.756C55.7452 19.9613 56.2025 20.26 56.5945 20.652C57.0052 21.044 57.3599 21.52 57.6585 22.08C57.9759 21.5947 58.3305 21.156 58.7225 20.764C59.1145 20.3533 59.5719 20.036 60.0945 19.812C60.6172 19.5693 61.2052 19.448 61.8585 19.448C62.9412 19.448 63.8465 19.7187 64.5745 20.26C65.3212 20.8013 65.8812 21.576 66.2545 22.584C66.6465 23.5733 66.8425 24.7587 66.8425 26.14V31.572C66.8425 31.8893 66.8052 32.1787 66.7305 32.44C66.6745 32.6827 66.5252 32.8787 66.2825 33.028C66.0585 33.1773 65.6852 33.252 65.1625 33.252C64.6399 33.252 64.2572 33.168 64.0145 33C63.7719 32.8507 63.6225 32.6547 63.5665 32.412C63.5105 32.1507 63.4825 31.8613 63.4825 31.544V26.112C63.4825 25.4213 63.3985 24.824 63.2305 24.32C63.0625 23.816 62.8105 23.424 62.4745 23.144C62.1572 22.864 61.7372 22.724 61.2145 22.724C60.6545 22.724 60.1692 22.864 59.7585 23.144C59.3665 23.4053 59.0585 23.788 58.8345 24.292C58.6105 24.796 58.4985 25.412 58.4985 26.14V31.6C58.4985 31.9173 58.4519 32.216 58.3585 32.496C58.2652 32.7573 58.0785 32.9533 57.7985 33.084C57.5372 33.2333 57.1545 33.2893 56.6505 33.252C56.1839 33.2333 55.8385 33.14 55.6145 32.972C55.4092 32.804 55.2785 32.5987 55.2225 32.356C55.1852 32.0947 55.1665 31.824 55.1665 31.544V26.112C55.1665 25.4213 55.0825 24.824 54.9145 24.32C54.7465 23.7973 54.4945 23.4053 54.1585 23.144C53.8412 22.864 53.4119 22.724 52.8705 22.724C52.2919 22.724 51.7972 22.8733 51.3865 23.172C50.9945 23.4707 50.6959 23.872 50.4905 24.376C50.2852 24.88 50.1825 25.4587 50.1825 26.112V31.6C50.1825 31.8987 50.1452 32.1787 50.0705 32.44C50.0145 32.7013 49.8652 32.8973 49.6225 33.028C49.3985 33.1773 49.0159 33.252 48.4745 33.252ZM81.1352 33.224C80.5939 33.224 80.1926 33.1213 79.9312 32.916C79.6699 32.7107 79.5392 32.4307 79.5392 32.076L79.7352 31.152C79.5859 31.3947 79.3339 31.684 78.9792 32.02C78.6246 32.3373 78.1579 32.6267 77.5792 32.888C77.0006 33.1307 76.3006 33.252 75.4792 33.252C74.6019 33.252 73.7712 33.0747 72.9872 32.72C72.2219 32.3467 71.5406 31.8427 70.9432 31.208C70.3646 30.5547 69.8979 29.8173 69.5432 28.996C69.2072 28.156 69.0392 27.26 69.0392 26.308C69.0392 25.3933 69.2072 24.5347 69.5432 23.732C69.8979 22.9107 70.3739 22.1827 70.9712 21.548C71.5686 20.9133 72.2499 20.4187 73.0152 20.064C73.7992 19.6907 74.6206 19.504 75.4792 19.504C76.2446 19.504 76.8886 19.6067 77.4112 19.812C77.9526 20.0173 78.4099 20.2787 78.7832 20.596C79.1566 20.8947 79.4646 21.212 79.7072 21.548L79.5392 20.736C79.5392 20.3253 79.6699 20.0173 79.9312 19.812C80.1926 19.588 80.6032 19.476 81.1632 19.476C81.6859 19.476 82.0592 19.56 82.2832 19.728C82.5072 19.8773 82.6472 20.092 82.7032 20.372C82.7592 20.6333 82.7872 20.932 82.7872 21.268V31.516C82.7872 31.8333 82.7592 32.1227 82.7032 32.384C82.6472 32.6453 82.4979 32.8507 82.2552 33C82.0312 33.1493 81.6579 33.224 81.1352 33.224ZM75.9832 29.976C76.6179 29.976 77.1872 29.8173 77.6912 29.5C78.1952 29.1827 78.5966 28.7533 78.8952 28.212C79.2126 27.652 79.3712 27.036 79.3712 26.364C79.3712 25.636 79.2126 25.0013 78.8952 24.46C78.5779 23.9187 78.1579 23.4987 77.6352 23.2C77.1312 22.8827 76.5619 22.724 75.9272 22.724C75.2366 22.724 74.6206 22.892 74.0792 23.228C73.5379 23.5453 73.1086 23.984 72.7912 24.544C72.4926 25.0853 72.3432 25.7013 72.3432 26.392C72.3432 27.064 72.5019 27.6707 72.8192 28.212C73.1366 28.7533 73.5659 29.1827 74.1072 29.5C74.6672 29.8173 75.2926 29.976 75.9832 29.976ZM87.2486 33.28C86.7446 33.28 86.3713 33.196 86.1286 33.028C85.9046 32.8787 85.7646 32.6733 85.7086 32.412C85.6526 32.1507 85.6246 31.8613 85.6246 31.544V21.156C85.6246 20.82 85.6526 20.5307 85.7086 20.288C85.7646 20.0267 85.9046 19.8307 86.1286 19.7C86.3713 19.5507 86.754 19.476 87.2766 19.476C87.7806 19.476 88.1446 19.5413 88.3686 19.672C88.6113 19.8027 88.7606 19.9707 88.8166 20.176C88.8913 20.3627 88.9286 20.5493 88.9286 20.736L88.7046 21.24C88.798 21.0907 88.9286 20.9133 89.0966 20.708C89.2646 20.484 89.4886 20.2693 89.7686 20.064C90.0486 19.84 90.3846 19.6627 90.7766 19.532C91.1686 19.3827 91.6353 19.308 92.1766 19.308C92.4006 19.308 92.634 19.336 92.8766 19.392C93.138 19.4293 93.39 19.4947 93.6326 19.588C93.894 19.6627 94.1273 19.7653 94.3326 19.896C94.538 20.0267 94.6966 20.1853 94.8086 20.372C94.9206 20.54 94.9766 20.736 94.9766 20.96C94.9766 21.5573 94.8273 22.0613 94.5286 22.472C94.23 22.8827 93.8753 23.088 93.4646 23.088C93.1846 23.088 92.9793 23.06 92.8486 23.004C92.718 22.948 92.606 22.8827 92.5126 22.808C92.438 22.7333 92.3166 22.668 92.1486 22.612C91.9993 22.556 91.7566 22.528 91.4206 22.528C91.1406 22.528 90.8513 22.5747 90.5526 22.668C90.2726 22.7613 90.0113 22.9013 89.7686 23.088C89.526 23.2747 89.33 23.5173 89.1806 23.816C89.0313 24.096 88.9566 24.4227 88.9566 24.796V31.6C88.9566 31.9173 88.9286 32.2067 88.8726 32.468C88.8166 32.7107 88.6673 32.9067 88.4246 33.056C88.182 33.2053 87.79 33.28 87.2486 33.28ZM103.666 33.28C102.752 33.28 101.968 33.1867 101.314 33C100.661 32.8133 100.129 32.524 99.7183 32.132C99.3076 31.74 98.9996 31.236 98.7943 30.62C98.6076 29.9853 98.5143 29.2387 98.5143 28.38V16.508C98.5143 16.172 98.5423 15.8827 98.5983 15.64C98.6729 15.3973 98.8223 15.2107 99.0463 15.08C99.2889 14.9307 99.6623 14.856 100.166 14.856C100.689 14.856 101.062 14.9307 101.286 15.08C101.529 15.2293 101.678 15.4347 101.734 15.696C101.809 15.9387 101.846 16.2093 101.846 16.508V28.268C101.846 28.66 101.874 28.9773 101.93 29.22C102.005 29.4627 102.108 29.6493 102.238 29.78C102.388 29.892 102.574 29.976 102.798 30.032C103.041 30.0693 103.33 30.088 103.666 30.088C104.021 30.088 104.32 30.116 104.562 30.172C104.824 30.228 105.02 30.368 105.15 30.592C105.281 30.7973 105.346 31.1427 105.346 31.628C105.346 32.1507 105.262 32.5333 105.094 32.776C104.945 33 104.74 33.14 104.478 33.196C104.236 33.252 103.965 33.28 103.666 33.28ZM97.3663 19.756L100.25 19.784L104.114 19.672C104.432 19.672 104.712 19.7093 104.954 19.784C105.216 19.84 105.421 19.9893 105.57 20.232C105.72 20.456 105.794 20.8293 105.794 21.352C105.794 21.8373 105.72 22.2013 105.57 22.444C105.421 22.6867 105.225 22.8453 104.982 22.92C104.74 22.976 104.46 23.004 104.142 23.004L100.39 22.948L97.2823 22.976C96.8156 22.9573 96.4889 22.8267 96.3023 22.584C96.1343 22.3227 96.0503 21.9027 96.0503 21.324C96.0503 20.7827 96.1529 20.3907 96.3583 20.148C96.5823 19.8867 96.9183 19.756 97.3663 19.756ZM114.014 33.532C113.174 33.532 112.408 33.4293 111.718 33.224C111.046 33.0187 110.448 32.7573 109.926 32.44C109.422 32.1227 108.992 31.796 108.638 31.46C108.283 31.124 108.022 30.816 107.854 30.536C107.611 30.2 107.452 29.9013 107.378 29.64C107.303 29.3787 107.322 29.1267 107.434 28.884C107.564 28.6227 107.798 28.352 108.134 28.072C108.47 27.7733 108.778 27.624 109.058 27.624C109.356 27.6053 109.636 27.6893 109.898 27.876C110.178 28.0627 110.448 28.324 110.71 28.66C111.158 29.2573 111.662 29.6867 112.222 29.948C112.782 30.1907 113.342 30.312 113.902 30.312C114.63 30.312 115.264 30.2187 115.806 30.032C116.347 29.8267 116.767 29.528 117.066 29.136C117.383 28.744 117.542 28.24 117.542 27.624C117.542 27.12 117.383 26.7093 117.066 26.392C116.767 26.056 116.366 25.776 115.862 25.552C115.358 25.3093 114.788 25.0947 114.154 24.908C113.538 24.7027 112.912 24.4787 112.278 24.236C111.83 24.0867 111.382 23.9093 110.934 23.704C110.486 23.48 110.066 23.228 109.674 22.948C109.3 22.668 108.964 22.3413 108.666 21.968C108.386 21.576 108.162 21.128 107.994 20.624C107.826 20.12 107.742 19.532 107.742 18.86C107.742 17.796 108.003 16.8627 108.526 16.06C109.048 15.2387 109.776 14.5947 110.71 14.128C111.643 13.6427 112.707 13.4 113.902 13.4C114.667 13.4 115.348 13.4747 115.946 13.624C116.562 13.7547 117.084 13.932 117.514 14.156C117.962 14.3613 118.326 14.576 118.606 14.8C118.904 15.0053 119.119 15.1827 119.25 15.332C119.679 15.7613 119.912 16.1253 119.95 16.424C120.006 16.704 119.838 17.0867 119.446 17.572C119.054 18.076 118.671 18.356 118.298 18.412C117.943 18.4493 117.542 18.3 117.094 17.964C116.795 17.6467 116.496 17.3947 116.198 17.208C115.899 17.0027 115.563 16.8533 115.19 16.76C114.835 16.6667 114.396 16.62 113.874 16.62C113.5 16.62 113.136 16.676 112.782 16.788C112.446 16.8813 112.156 17.0307 111.914 17.236C111.671 17.4227 111.475 17.656 111.326 17.936C111.195 18.216 111.13 18.5333 111.13 18.888C111.13 19.3733 111.26 19.7747 111.522 20.092C111.802 20.3907 112.175 20.6427 112.642 20.848C113.108 21.0347 113.631 21.212 114.21 21.38C114.788 21.548 115.376 21.7253 115.974 21.912C116.59 22.1173 117.196 22.36 117.794 22.64C118.391 22.92 118.923 23.2747 119.39 23.704C119.856 24.1147 120.23 24.6373 120.51 25.272C120.79 25.888 120.93 26.644 120.93 27.54C120.93 28.5667 120.734 29.4627 120.342 30.228C119.95 30.9933 119.418 31.6187 118.746 32.104C118.074 32.5893 117.327 32.944 116.506 33.168C115.684 33.4107 114.854 33.532 114.014 33.532ZM125.124 33.252C124.602 33.252 124.219 33.1773 123.976 33.028C123.734 32.8787 123.584 32.6733 123.528 32.412C123.472 32.132 123.444 31.8427 123.444 31.544V15.388C123.444 15.0893 123.472 14.8187 123.528 14.576C123.603 14.3147 123.762 14.1093 124.004 13.96C124.247 13.792 124.63 13.708 125.152 13.708H131.088C131.91 13.708 132.712 13.848 133.496 14.128C134.28 14.408 134.98 14.828 135.596 15.388C136.231 15.948 136.726 16.6387 137.08 17.46C137.454 18.2813 137.64 19.2427 137.64 20.344C137.64 21.4267 137.454 22.3787 137.08 23.2C136.726 24.0027 136.231 24.684 135.596 25.244C134.962 25.804 134.252 26.224 133.468 26.504C132.703 26.784 131.9 26.924 131.06 26.924H126.832V31.572C126.832 31.8707 126.795 32.1507 126.72 32.412C126.664 32.6733 126.515 32.8787 126.272 33.028C126.048 33.1773 125.666 33.252 125.124 33.252ZM126.832 23.508H131.088C131.667 23.508 132.19 23.396 132.656 23.172C133.142 22.9293 133.534 22.5747 133.832 22.108C134.131 21.6227 134.28 21.016 134.28 20.288C134.28 19.6347 134.14 19.0747 133.86 18.608C133.599 18.1227 133.226 17.7493 132.74 17.488C132.274 17.2267 131.714 17.096 131.06 17.096H126.832V23.508ZM141.886 33.252C141.363 33.252 140.981 33.1773 140.738 33.028C140.495 32.8787 140.346 32.6733 140.29 32.412C140.234 32.132 140.206 31.8427 140.206 31.544V15.388C140.206 15.0893 140.234 14.8187 140.29 14.576C140.365 14.3147 140.523 14.1093 140.766 13.96C141.009 13.792 141.391 13.708 141.914 13.708H147.85C148.671 13.708 149.474 13.848 150.258 14.128C151.042 14.408 151.742 14.828 152.358 15.388C152.993 15.948 153.487 16.6387 153.842 17.46C154.215 18.2813 154.402 19.2427 154.402 20.344C154.402 21.4267 154.215 22.3787 153.842 23.2C153.487 24.0027 152.993 24.684 152.358 25.244C151.723 25.804 151.014 26.224 150.23 26.504C149.465 26.784 148.662 26.924 147.822 26.924H143.594V31.572C143.594 31.8707 143.557 32.1507 143.482 32.412C143.426 32.6733 143.277 32.8787 143.034 33.028C142.81 33.1773 142.427 33.252 141.886 33.252ZM143.594 23.508H147.85C148.429 23.508 148.951 23.396 149.418 23.172C149.903 22.9293 150.295 22.5747 150.594 22.108C150.893 21.6227 151.042 21.016 151.042 20.288C151.042 19.6347 150.902 19.0747 150.622 18.608C150.361 18.1227 149.987 17.7493 149.502 17.488C149.035 17.2267 148.475 17.096 147.822 17.096H143.594V23.508Z" fill="#3700FF"/>
</svg>
