<svg width="165" height="46" viewBox="0 0 165 46" fill="none" xmlns="http://www.w3.org/2000/svg">
<path d="M40.588 33.532C39.748 33.532 38.9827 33.4293 38.292 33.224C37.62 33.0187 37.0227 32.7573 36.5 32.44C35.996 32.1227 35.5667 31.796 35.212 31.46C34.8573 31.124 34.596 30.816 34.428 30.536C34.1853 30.2 34.0267 29.9013 33.952 29.64C33.8773 29.3787 33.896 29.1267 34.008 28.884C34.1387 28.6227 34.372 28.352 34.708 28.072C35.044 27.7733 35.352 27.624 35.632 27.624C35.9307 27.6053 36.2107 27.6893 36.472 27.876C36.752 28.0627 37.0227 28.324 37.284 28.66C37.732 29.2573 38.236 29.6867 38.796 29.948C39.356 30.1907 39.916 30.312 40.476 30.312C41.204 30.312 41.8387 30.2187 42.38 30.032C42.9213 29.8267 43.3413 29.528 43.64 29.136C43.9573 28.744 44.116 28.24 44.116 27.624C44.116 27.12 43.9573 26.7093 43.64 26.392C43.3413 26.056 42.94 25.776 42.436 25.552C41.932 25.3093 41.3627 25.0947 40.728 24.908C40.112 24.7027 39.4867 24.4787 38.852 24.236C38.404 24.0867 37.956 23.9093 37.508 23.704C37.06 23.48 36.64 23.228 36.248 22.948C35.8747 22.668 35.5387 22.3413 35.24 21.968C34.96 21.576 34.736 21.128 34.568 20.624C34.4 20.12 34.316 19.532 34.316 18.86C34.316 17.796 34.5773 16.8627 35.1 16.06C35.6227 15.2387 36.3507 14.5947 37.284 14.128C38.2173 13.6427 39.2813 13.4 40.476 13.4C41.2413 13.4 41.9227 13.4747 42.52 13.624C43.136 13.7547 43.6587 13.932 44.088 14.156C44.536 14.3613 44.9 14.576 45.18 14.8C45.4787 15.0053 45.6933 15.1827 45.824 15.332C46.2533 15.7613 46.4867 16.1253 46.524 16.424C46.58 16.704 46.412 17.0867 46.02 17.572C45.628 18.076 45.2453 18.356 44.872 18.412C44.5173 18.4493 44.116 18.3 43.668 17.964C43.3693 17.6467 43.0707 17.3947 42.772 17.208C42.4733 17.0027 42.1373 16.8533 41.764 16.76C41.4093 16.6667 40.9707 16.62 40.448 16.62C40.0747 16.62 39.7107 16.676 39.356 16.788C39.02 16.8813 38.7307 17.0307 38.488 17.236C38.2453 17.4227 38.0493 17.656 37.9 17.936C37.7693 18.216 37.704 18.5333 37.704 18.888C37.704 19.3733 37.8347 19.7747 38.096 20.092C38.376 20.3907 38.7493 20.6427 39.216 20.848C39.6827 21.0347 40.2053 21.212 40.784 21.38C41.3627 21.548 41.9507 21.7253 42.548 21.912C43.164 22.1173 43.7707 22.36 44.368 22.64C44.9653 22.92 45.4973 23.2747 45.964 23.704C46.4307 24.1147 46.804 24.6373 47.084 25.272C47.364 25.888 47.504 26.644 47.504 27.54C47.504 28.5667 47.308 29.4627 46.916 30.228C46.524 30.9933 45.992 31.6187 45.32 32.104C44.648 32.5893 43.9013 32.944 43.08 33.168C42.2587 33.4107 41.428 33.532 40.588 33.532ZM51.4745 33.252C50.9705 33.252 50.5972 33.1773 50.3545 33.028C50.1305 32.8787 49.9905 32.6733 49.9345 32.412C49.8785 32.1507 49.8505 31.8707 49.8505 31.572V21.1C49.8505 20.8013 49.8785 20.5307 49.9345 20.288C49.9905 20.0453 50.1399 19.8493 50.3825 19.7C50.6252 19.5507 51.0079 19.476 51.5305 19.476C52.0719 19.476 52.4639 19.588 52.7065 19.812C52.9679 20.036 53.0985 20.3907 53.0985 20.876L52.8465 21.66C52.9399 21.4547 53.0985 21.2307 53.3225 20.988C53.5465 20.7453 53.8172 20.5027 54.1345 20.26C54.4705 20.0173 54.8439 19.8213 55.2545 19.672C55.6652 19.5227 56.0945 19.448 56.5425 19.448C57.1585 19.448 57.7185 19.5507 58.2225 19.756C58.7452 19.9613 59.2025 20.26 59.5945 20.652C60.0052 21.044 60.3599 21.52 60.6585 22.08C60.9759 21.5947 61.3305 21.156 61.7225 20.764C62.1145 20.3533 62.5719 20.036 63.0945 19.812C63.6172 19.5693 64.2052 19.448 64.8585 19.448C65.9412 19.448 66.8465 19.7187 67.5745 20.26C68.3212 20.8013 68.8812 21.576 69.2545 22.584C69.6465 23.5733 69.8425 24.7587 69.8425 26.14V31.572C69.8425 31.8893 69.8052 32.1787 69.7305 32.44C69.6745 32.6827 69.5252 32.8787 69.2825 33.028C69.0585 33.1773 68.6852 33.252 68.1625 33.252C67.6399 33.252 67.2572 33.168 67.0145 33C66.7719 32.8507 66.6225 32.6547 66.5665 32.412C66.5105 32.1507 66.4825 31.8613 66.4825 31.544V26.112C66.4825 25.4213 66.3985 24.824 66.2305 24.32C66.0625 23.816 65.8105 23.424 65.4745 23.144C65.1572 22.864 64.7372 22.724 64.2145 22.724C63.6545 22.724 63.1692 22.864 62.7585 23.144C62.3665 23.4053 62.0585 23.788 61.8345 24.292C61.6105 24.796 61.4985 25.412 61.4985 26.14V31.6C61.4985 31.9173 61.4519 32.216 61.3585 32.496C61.2652 32.7573 61.0785 32.9533 60.7985 33.084C60.5372 33.2333 60.1545 33.2893 59.6505 33.252C59.1839 33.2333 58.8385 33.14 58.6145 32.972C58.4092 32.804 58.2785 32.5987 58.2225 32.356C58.1852 32.0947 58.1665 31.824 58.1665 31.544V26.112C58.1665 25.4213 58.0825 24.824 57.9145 24.32C57.7465 23.7973 57.4945 23.4053 57.1585 23.144C56.8412 22.864 56.4119 22.724 55.8705 22.724C55.2919 22.724 54.7972 22.8733 54.3865 23.172C53.9945 23.4707 53.6959 23.872 53.4905 24.376C53.2852 24.88 53.1825 25.4587 53.1825 26.112V31.6C53.1825 31.8987 53.1452 32.1787 53.0705 32.44C53.0145 32.7013 52.8652 32.8973 52.6225 33.028C52.3985 33.1773 52.0159 33.252 51.4745 33.252ZM84.1352 33.224C83.5939 33.224 83.1926 33.1213 82.9312 32.916C82.6699 32.7107 82.5392 32.4307 82.5392 32.076L82.7352 31.152C82.5859 31.3947 82.3339 31.684 81.9792 32.02C81.6246 32.3373 81.1579 32.6267 80.5792 32.888C80.0006 33.1307 79.3006 33.252 78.4792 33.252C77.6019 33.252 76.7712 33.0747 75.9872 32.72C75.2219 32.3467 74.5406 31.8427 73.9432 31.208C73.3646 30.5547 72.8979 29.8173 72.5432 28.996C72.2072 28.156 72.0392 27.26 72.0392 26.308C72.0392 25.3933 72.2072 24.5347 72.5432 23.732C72.8979 22.9107 73.3739 22.1827 73.9712 21.548C74.5686 20.9133 75.2499 20.4187 76.0152 20.064C76.7992 19.6907 77.6206 19.504 78.4792 19.504C79.2446 19.504 79.8886 19.6067 80.4112 19.812C80.9526 20.0173 81.4099 20.2787 81.7832 20.596C82.1566 20.8947 82.4646 21.212 82.7072 21.548L82.5392 20.736C82.5392 20.3253 82.6699 20.0173 82.9312 19.812C83.1926 19.588 83.6032 19.476 84.1632 19.476C84.6859 19.476 85.0592 19.56 85.2832 19.728C85.5072 19.8773 85.6472 20.092 85.7032 20.372C85.7592 20.6333 85.7872 20.932 85.7872 21.268V31.516C85.7872 31.8333 85.7592 32.1227 85.7032 32.384C85.6472 32.6453 85.4979 32.8507 85.2552 33C85.0312 33.1493 84.6579 33.224 84.1352 33.224ZM78.9832 29.976C79.6179 29.976 80.1872 29.8173 80.6912 29.5C81.1952 29.1827 81.5966 28.7533 81.8952 28.212C82.2126 27.652 82.3712 27.036 82.3712 26.364C82.3712 25.636 82.2126 25.0013 81.8952 24.46C81.5779 23.9187 81.1579 23.4987 80.6352 23.2C80.1312 22.8827 79.5619 22.724 78.9272 22.724C78.2366 22.724 77.6206 22.892 77.0792 23.228C76.5379 23.5453 76.1086 23.984 75.7912 24.544C75.4926 25.0853 75.3432 25.7013 75.3432 26.392C75.3432 27.064 75.5019 27.6707 75.8192 28.212C76.1366 28.7533 76.5659 29.1827 77.1072 29.5C77.6672 29.8173 78.2926 29.976 78.9832 29.976ZM90.2486 33.28C89.7446 33.28 89.3713 33.196 89.1286 33.028C88.9046 32.8787 88.7646 32.6733 88.7086 32.412C88.6526 32.1507 88.6246 31.8613 88.6246 31.544V21.156C88.6246 20.82 88.6526 20.5307 88.7086 20.288C88.7646 20.0267 88.9046 19.8307 89.1286 19.7C89.3713 19.5507 89.754 19.476 90.2766 19.476C90.7806 19.476 91.1446 19.5413 91.3686 19.672C91.6113 19.8027 91.7606 19.9707 91.8166 20.176C91.8913 20.3627 91.9286 20.5493 91.9286 20.736L91.7046 21.24C91.798 21.0907 91.9286 20.9133 92.0966 20.708C92.2646 20.484 92.4886 20.2693 92.7686 20.064C93.0486 19.84 93.3846 19.6627 93.7766 19.532C94.1686 19.3827 94.6353 19.308 95.1766 19.308C95.4006 19.308 95.634 19.336 95.8766 19.392C96.138 19.4293 96.39 19.4947 96.6326 19.588C96.894 19.6627 97.1273 19.7653 97.3326 19.896C97.538 20.0267 97.6966 20.1853 97.8086 20.372C97.9206 20.54 97.9766 20.736 97.9766 20.96C97.9766 21.5573 97.8273 22.0613 97.5286 22.472C97.23 22.8827 96.8753 23.088 96.4646 23.088C96.1846 23.088 95.9793 23.06 95.8486 23.004C95.718 22.948 95.606 22.8827 95.5126 22.808C95.438 22.7333 95.3166 22.668 95.1486 22.612C94.9993 22.556 94.7566 22.528 94.4206 22.528C94.1406 22.528 93.8513 22.5747 93.5526 22.668C93.2726 22.7613 93.0113 22.9013 92.7686 23.088C92.526 23.2747 92.33 23.5173 92.1806 23.816C92.0313 24.096 91.9566 24.4227 91.9566 24.796V31.6C91.9566 31.9173 91.9286 32.2067 91.8726 32.468C91.8166 32.7107 91.6673 32.9067 91.4246 33.056C91.182 33.2053 90.79 33.28 90.2486 33.28ZM106.666 33.28C105.752 33.28 104.968 33.1867 104.314 33C103.661 32.8133 103.129 32.524 102.718 32.132C102.308 31.74 102 31.236 101.794 30.62C101.608 29.9853 101.514 29.2387 101.514 28.38V16.508C101.514 16.172 101.542 15.8827 101.598 15.64C101.673 15.3973 101.822 15.2107 102.046 15.08C102.289 14.9307 102.662 14.856 103.166 14.856C103.689 14.856 104.062 14.9307 104.286 15.08C104.529 15.2293 104.678 15.4347 104.734 15.696C104.809 15.9387 104.846 16.2093 104.846 16.508V28.268C104.846 28.66 104.874 28.9773 104.93 29.22C105.005 29.4627 105.108 29.6493 105.238 29.78C105.388 29.892 105.574 29.976 105.798 30.032C106.041 30.0693 106.33 30.088 106.666 30.088C107.021 30.088 107.32 30.116 107.562 30.172C107.824 30.228 108.02 30.368 108.15 30.592C108.281 30.7973 108.346 31.1427 108.346 31.628C108.346 32.1507 108.262 32.5333 108.094 32.776C107.945 33 107.74 33.14 107.478 33.196C107.236 33.252 106.965 33.28 106.666 33.28ZM100.366 19.756L103.25 19.784L107.114 19.672C107.432 19.672 107.712 19.7093 107.954 19.784C108.216 19.84 108.421 19.9893 108.57 20.232C108.72 20.456 108.794 20.8293 108.794 21.352C108.794 21.8373 108.72 22.2013 108.57 22.444C108.421 22.6867 108.225 22.8453 107.982 22.92C107.74 22.976 107.46 23.004 107.142 23.004L103.39 22.948L100.282 22.976C99.8156 22.9573 99.4889 22.8267 99.3023 22.584C99.1343 22.3227 99.0503 21.9027 99.0503 21.324C99.0503 20.7827 99.1529 20.3907 99.3583 20.148C99.5823 19.8867 99.9183 19.756 100.366 19.756ZM117.014 33.532C116.174 33.532 115.408 33.4293 114.718 33.224C114.046 33.0187 113.448 32.7573 112.926 32.44C112.422 32.1227 111.992 31.796 111.638 31.46C111.283 31.124 111.022 30.816 110.854 30.536C110.611 30.2 110.452 29.9013 110.378 29.64C110.303 29.3787 110.322 29.1267 110.434 28.884C110.564 28.6227 110.798 28.352 111.134 28.072C111.47 27.7733 111.778 27.624 112.058 27.624C112.356 27.6053 112.636 27.6893 112.898 27.876C113.178 28.0627 113.448 28.324 113.71 28.66C114.158 29.2573 114.662 29.6867 115.222 29.948C115.782 30.1907 116.342 30.312 116.902 30.312C117.63 30.312 118.264 30.2187 118.806 30.032C119.347 29.8267 119.767 29.528 120.066 29.136C120.383 28.744 120.542 28.24 120.542 27.624C120.542 27.12 120.383 26.7093 120.066 26.392C119.767 26.056 119.366 25.776 118.862 25.552C118.358 25.3093 117.788 25.0947 117.154 24.908C116.538 24.7027 115.912 24.4787 115.278 24.236C114.83 24.0867 114.382 23.9093 113.934 23.704C113.486 23.48 113.066 23.228 112.674 22.948C112.3 22.668 111.964 22.3413 111.666 21.968C111.386 21.576 111.162 21.128 110.994 20.624C110.826 20.12 110.742 19.532 110.742 18.86C110.742 17.796 111.003 16.8627 111.526 16.06C112.048 15.2387 112.776 14.5947 113.71 14.128C114.643 13.6427 115.707 13.4 116.902 13.4C117.667 13.4 118.348 13.4747 118.946 13.624C119.562 13.7547 120.084 13.932 120.514 14.156C120.962 14.3613 121.326 14.576 121.606 14.8C121.904 15.0053 122.119 15.1827 122.25 15.332C122.679 15.7613 122.912 16.1253 122.95 16.424C123.006 16.704 122.838 17.0867 122.446 17.572C122.054 18.076 121.671 18.356 121.298 18.412C120.943 18.4493 120.542 18.3 120.094 17.964C119.795 17.6467 119.496 17.3947 119.198 17.208C118.899 17.0027 118.563 16.8533 118.19 16.76C117.835 16.6667 117.396 16.62 116.874 16.62C116.5 16.62 116.136 16.676 115.782 16.788C115.446 16.8813 115.156 17.0307 114.914 17.236C114.671 17.4227 114.475 17.656 114.326 17.936C114.195 18.216 114.13 18.5333 114.13 18.888C114.13 19.3733 114.26 19.7747 114.522 20.092C114.802 20.3907 115.175 20.6427 115.642 20.848C116.108 21.0347 116.631 21.212 117.21 21.38C117.788 21.548 118.376 21.7253 118.974 21.912C119.59 22.1173 120.196 22.36 120.794 22.64C121.391 22.92 121.923 23.2747 122.39 23.704C122.856 24.1147 123.23 24.6373 123.51 25.272C123.79 25.888 123.93 26.644 123.93 27.54C123.93 28.5667 123.734 29.4627 123.342 30.228C122.95 30.9933 122.418 31.6187 121.746 32.104C121.074 32.5893 120.327 32.944 119.506 33.168C118.684 33.4107 117.854 33.532 117.014 33.532ZM128.124 33.252C127.602 33.252 127.219 33.1773 126.976 33.028C126.734 32.8787 126.584 32.6733 126.528 32.412C126.472 32.132 126.444 31.8427 126.444 31.544V15.388C126.444 15.0893 126.472 14.8187 126.528 14.576C126.603 14.3147 126.762 14.1093 127.004 13.96C127.247 13.792 127.63 13.708 128.152 13.708H134.088C134.91 13.708 135.712 13.848 136.496 14.128C137.28 14.408 137.98 14.828 138.596 15.388C139.231 15.948 139.726 16.6387 140.08 17.46C140.454 18.2813 140.64 19.2427 140.64 20.344C140.64 21.4267 140.454 22.3787 140.08 23.2C139.726 24.0027 139.231 24.684 138.596 25.244C137.962 25.804 137.252 26.224 136.468 26.504C135.703 26.784 134.9 26.924 134.06 26.924H129.832V31.572C129.832 31.8707 129.795 32.1507 129.72 32.412C129.664 32.6733 129.515 32.8787 129.272 33.028C129.048 33.1773 128.666 33.252 128.124 33.252ZM129.832 23.508H134.088C134.667 23.508 135.19 23.396 135.656 23.172C136.142 22.9293 136.534 22.5747 136.832 22.108C137.131 21.6227 137.28 21.016 137.28 20.288C137.28 19.6347 137.14 19.0747 136.86 18.608C136.599 18.1227 136.226 17.7493 135.74 17.488C135.274 17.2267 134.714 17.096 134.06 17.096H129.832V23.508ZM144.886 33.252C144.363 33.252 143.981 33.1773 143.738 33.028C143.495 32.8787 143.346 32.6733 143.29 32.412C143.234 32.132 143.206 31.8427 143.206 31.544V15.388C143.206 15.0893 143.234 14.8187 143.29 14.576C143.365 14.3147 143.523 14.1093 143.766 13.96C144.009 13.792 144.391 13.708 144.914 13.708H150.85C151.671 13.708 152.474 13.848 153.258 14.128C154.042 14.408 154.742 14.828 155.358 15.388C155.993 15.948 156.487 16.6387 156.842 17.46C157.215 18.2813 157.402 19.2427 157.402 20.344C157.402 21.4267 157.215 22.3787 156.842 23.2C156.487 24.0027 155.993 24.684 155.358 25.244C154.723 25.804 154.014 26.224 153.23 26.504C152.465 26.784 151.662 26.924 150.822 26.924H146.594V31.572C146.594 31.8707 146.557 32.1507 146.482 32.412C146.426 32.6733 146.277 32.8787 146.034 33.028C145.81 33.1773 145.427 33.252 144.886 33.252ZM146.594 23.508H150.85C151.429 23.508 151.951 23.396 152.418 23.172C152.903 22.9293 153.295 22.5747 153.594 22.108C153.893 21.6227 154.042 21.016 154.042 20.288C154.042 19.6347 153.902 19.0747 153.622 18.608C153.361 18.1227 152.987 17.7493 152.502 17.488C152.035 17.2267 151.475 17.096 150.822 17.096H146.594V23.508Z" fill="white"/>
<path d="M22.7063 24.063L12.0949 34.6648C12.4483 35.0185 17.345 39.7985 18.8097 40.6783C22.3442 42.8012 26.2335 42.4494 33.3081 34.6745L22.7063 24.063Z" stroke="white"/>
<path d="M22.7447 21.2795L33.3639 10.6855C29.7813 7.09962 28.1176 5.54792 26.6535 4.66709C23.1205 2.54155 19.231 2.89048 12.1507 10.6603L22.7447 21.2795Z" stroke="white"/>
<path d="M21.3375 22.7281L10.8158 12.0373C7.20571 15.5954 5.64275 17.2486 4.75201 18.7067C2.60256 22.2252 2.92509 26.1169 10.6467 33.2498L21.3375 22.7281Z" stroke="white"/>
</svg>
